<?xml version="1.0" encoding="utf-8"?>
<!-- Generator: Adobe Illustrator 24.3.0, SVG Export Plug-In . SVG Version: 6.00 Build 0)  -->
<svg version="1.1" id="Layer_1" xmlns="http://www.w3.org/2000/svg" xmlns:xlink="http://www.w3.org/1999/xlink" x="0px" y="0px"
	 viewBox="0 0 50 50" style="enable-background:new 0 0 50 50;" xml:space="preserve">
<style type="text/css">
	.st0{fill:#D32757;}
</style>
<path class="st0" d="M47.3,28.6l-3.8-15.8c-0.3-1.7-1.9-4.9-6.4-4.9c-0.6,0-1.1,0.5-1.1,1.1c0,0.6,0.5,1.1,1.1,1.1
	c3.6,0,4.1,2.8,4.2,3.1l3.5,14.5h-1.5c-0.5-4.9-4.9-8.4-9.8-7.8c-4.1,0.5-7.4,3.7-7.8,7.8h-1.3c-0.5-4.9-4.9-8.4-9.8-7.9
	c-4.1,0.4-7.4,3.7-7.9,7.9H5.2l3.5-14.5c0-0.3,0.6-3.1,4.2-3.1c0.6,0,1.1-0.5,1.1-1.1c0-0.6-0.5-1.1-1.1-1.1c-4.4,0-6.1,3.2-6.4,4.9
	L2.7,28.6c-0.2,0.6,0.2,1.1,0.7,1.3c0.1,0,0.2,0,0.3,0h3c0.5,4.9,4.9,8.4,9.8,7.8c4.1-0.5,7.4-3.7,7.8-7.8h1.3
	c0.5,4.9,4.9,8.4,9.8,7.9c4.1-0.4,7.4-3.7,7.9-7.9h3c0.6,0,1.1-0.4,1.1-1C47.4,28.9,47.3,28.7,47.3,28.6z M22.1,30
	c-0.5,3.6-3.8,6.2-7.4,5.7c-3.4-0.4-5.9-3.4-5.8-6.9c0-0.4,0-0.7,0.1-1.1c0.6-3.6,4-6.1,7.6-5.6c2.9,0.4,5.1,2.7,5.6,5.6
	c0.1,0.4,0.1,0.7,0.1,1.1C22.2,29.2,22.2,29.6,22.1,30z M41,30c-0.4,3.6-3.7,6.3-7.3,5.9c-3.5-0.4-6.1-3.5-5.9-7
	c0-0.4,0-0.7,0.1-1.1c0.6-3.6,4-6.1,7.6-5.6c2.9,0.4,5.1,2.7,5.6,5.6c0.1,0.4,0.1,0.7,0.1,1.1C41.2,29.2,41.1,29.6,41,30L41,30z"/>
</svg>
