<svg id="Layer_1" data-name="Layer 1" xmlns="http://www.w3.org/2000/svg" viewBox="0 0 42.08 47.04"><defs><style>.cls-1{fill:#a4c639}</style></defs><path class="cls-1" d="M34.14 14H7.94v19.1a3.59 3.59 0 003.31 3.62v7.44a2.89 2.89 0 005.77 0v-7.42h8.06v7.42a2.89 2.89 0 005.77 0v-7.44a3.6 3.6 0 003.32-3.62V14.34l-.03-.34z"/><path id="c-4-9-2-9-2-9" class="cls-1" d="M2.89 15.68a2.88 2.88 0 012.88 2.88v12.38a2.88 2.88 0 01-2.88 2.89A2.89 2.89 0 010 30.94V18.56a2.88 2.88 0 012.89-2.88z"/><path id="c-4-1-7-3-8-4" class="cls-1" d="M39.2 15.68a2.88 2.88 0 012.88 2.88v12.38a2.88 2.88 0 01-2.88 2.89 2.89 2.89 0 01-2.89-2.89V18.56a2.88 2.88 0 012.89-2.88z"/><path class="cls-1" d="M8 12h26a10.48 10.48 0 00-3.19-7.28L33.32.46A.31.31 0 0033.2 0a.31.31 0 00-.41.11l-2.37 4.15A16.15 16.15 0 0021 .86a16.41 16.41 0 00-9.37 3.4L9.3.15A.32.32 0 008.88 0a.32.32 0 00-.11.42l2.44 4.23A10.52 10.52 0 008 12zm17.32-5.2a1.5 1.5 0 013 0 1.5 1.5 0 01-3 0zm-11.14 0a1.5 1.5 0 013 0 1.5 1.5 0 01-3 0z"/></svg>