<svg data-name="Layer 1" xmlns="http://www.w3.org/2000/svg" viewBox="0 0 74.43 22.86"><path d="M0 1.45A1.29 1.29 0 011.26.16h7.18c5.08 0 8.43 2.71 8.43 7.15v.06c0 4.86-4.05 7.38-8.85 7.38H2.54v6.82a1.29 1.29 0 01-1.28 1.29A1.29 1.29 0 010 21.57zm8.11 11c3.74 0 6.19-2 6.19-5v-.04c0-3.22-2.42-4.9-6.06-4.9h-5.7v9.92zM21.73 1.29a1.27 1.27 0 112.54 0v20.28a1.27 1.27 0 11-2.54 0V1.29zm9.14.03A1.28 1.28 0 0132.13.06h.35a1.57 1.57 0 011.29.74l13.68 17.45v-17a1.24 1.24 0 112.48 0V21.6a1.14 1.14 0 01-1.16 1.19h-.13a1.76 1.76 0 01-1.32-.79l-14-17.87V21.6a1.24 1.24 0 11-2.48 0zm25.43-.03a1.27 1.27 0 112.54 0v12.33L71.69.45a1.43 1.43 0 011-.45 1.27 1.27 0 011.22 1.26 1.25 1.25 0 01-.42.9l-8 7.92 8.56 10.56a1.39 1.39 0 01.36.93 1.31 1.31 0 01-1.29 1.29 1.22 1.22 0 01-1-.58l-8.4-10.46-4.86 4.86v4.89a1.28 1.28 0 11-2.55 0V1.29z" fill="#fff"/></svg>