<svg data-name="Layer 1" xmlns="http://www.w3.org/2000/svg" viewBox="0 0 298 345.1"><path d="M264.57 102.06l5.35-5.36c7.72-7.72 9.13-18.94 3.13-24.93s-17.22-4.6-24.93 3.12l-5.39 5.39A148.19 148.19 0 00168 48.3v-9.59h7.66c10.91 0 19.84-8.71 19.84-19.35S186.57 0 175.66 0h-53.32c-10.91 0-19.84 8.71-19.84 19.36s8.93 19.35 19.84 19.35H130v9.59a149 149 0 10134.57 53.76zM149 306.26A110.17 110.17 0 11259.17 196.1 110.17 110.17 0 01149 306.26z" fill="#dedede"/><path d="M149 69.6a126.5 126.5 0 10126.5 126.5A126.5 126.5 0 00149 69.6zm0 237.21a110.17 110.17 0 11110.17-110.16A110.17 110.17 0 01149 306.81z" fill="#d22856"/></svg>