<svg xmlns="http://www.w3.org/2000/svg" viewBox="0 0 50 50"><path d="M47.3 28.6l-3.8-15.8c-.3-1.7-1.9-4.9-6.4-4.9-.6 0-1.1.5-1.1 1.1 0 .6.5 1.1 1.1 1.1 3.6 0 4.1 2.8 4.2 3.1l3.5 14.5h-1.5c-.5-4.9-4.9-8.4-9.8-7.8-4.1.5-7.4 3.7-7.8 7.8h-1.3c-.5-4.9-4.9-8.4-9.8-7.9-4.1.4-7.4 3.7-7.9 7.9H5.2l3.5-14.5c0-.3.6-3.1 4.2-3.1.6 0 1.1-.5 1.1-1.1 0-.6-.5-1.1-1.1-1.1-4.4 0-6.1 3.2-6.4 4.9L2.7 28.6c-.2.6.2 1.1.7 1.3h3.3c.5 4.9 4.9 8.4 9.8 7.8 4.1-.5 7.4-3.7 7.8-7.8h1.3c.5 4.9 4.9 8.4 9.8 7.9 4.1-.4 7.4-3.7 7.9-7.9h3c.6 0 1.1-.4 1.1-1 0 0-.1-.2-.1-.3zM22.1 30c-.5 3.6-3.8 6.2-7.4 5.7-3.4-.4-5.9-3.4-5.8-6.9 0-.4 0-.7.1-1.1.6-3.6 4-6.1 7.6-5.6 2.9.4 5.1 2.7 5.6 5.6.1.4.1.7.1 1.1-.1.4-.1.8-.2 1.2zM41 30c-.4 3.6-3.7 6.3-7.3 5.9-3.5-.4-6.1-3.5-5.9-7 0-.4 0-.7.1-1.1.6-3.6 4-6.1 7.6-5.6 2.9.4 5.1 2.7 5.6 5.6.1.4.1.7.1 1.1 0 .3-.1.7-.2 1.1z" fill="#d32757"/></svg>