<svg id="Layer_1" data-name="Layer 1" xmlns="http://www.w3.org/2000/svg" viewBox="0 0 42.08 47.04"><defs><style>.cls-1{fill:#a4c639;}</style></defs><path class="cls-1" d="M34.14,14H7.94c0,.11,0,.22,0,.33V33.1a3.59,3.59,0,0,0,3.31,3.62v7.44a2.89,2.89,0,0,0,5.77,0V36.74h8.06v7.42a2.89,2.89,0,0,0,5.77,0V36.72a3.6,3.6,0,0,0,3.32-3.62V14.34C34.16,14.23,34.15,14.12,34.14,14Z" transform="translate(0 0)"/><path id="c-4-9-2-9-2-9" class="cls-1" d="M2.89,15.68h0a2.88,2.88,0,0,1,2.88,2.88V30.94a2.88,2.88,0,0,1-2.88,2.89h0A2.89,2.89,0,0,1,0,30.94V18.56A2.88,2.88,0,0,1,2.89,15.68Z" transform="translate(0 0)"/><path id="c-4-1-7-3-8-4" class="cls-1" d="M39.2,15.68h0a2.88,2.88,0,0,1,2.88,2.88V30.94a2.88,2.88,0,0,1-2.88,2.89h0a2.89,2.89,0,0,1-2.89-2.89V18.56A2.88,2.88,0,0,1,39.2,15.68Z" transform="translate(0 0)"/><path class="cls-1" d="M8,12h26a10.48,10.48,0,0,0-3.19-7.28L33.32.46A.31.31,0,0,0,33.2,0a.31.31,0,0,0-.41.11L30.42,4.26A16.15,16.15,0,0,0,21,.86h0a16.41,16.41,0,0,0-9.37,3.4L9.3.15A.32.32,0,0,0,8.88,0a.32.32,0,0,0-.11.42l2.44,4.23A10.52,10.52,0,0,0,8,12ZM25.32,6.8a1.5,1.5,0,0,1,3,0h0a1.5,1.5,0,0,1-3,0Zm-11.14,0a1.5,1.5,0,0,1,3,0h0a1.5,1.5,0,0,1-3,0Z" transform="translate(0 0)"/></svg>