<svg id="Layer_1" data-name="Layer 1" xmlns="http://www.w3.org/2000/svg" viewBox="0 0 78.67 63.79"><defs><style>.cls-1{fill:#efefef;}</style></defs><path class="cls-1" d="M35,7.06,30.71,0C28.27,1.5,0,12.21,0,39.62c0,7.23.34,24.17,18.9,24.17,11.19,0,13.94-10.28,13.94-13.59,0-22-21.38-14.17-21.38-14.17C11.46,18,31.26,9.18,35,7.06Z"/><path class="cls-1" d="M78.67,7.06,74.42,0C72,1.5,43.7,12.21,43.7,39.62c0,7.23.34,24.17,18.91,24.17,11.18,0,13.93-10.28,13.93-13.59,0-22-21.38-14.17-21.38-14.17C55.16,18,75,9.18,78.67,7.06Z"/></svg>