<svg id="Layer_1" data-name="Layer 1" xmlns="http://www.w3.org/2000/svg" viewBox="0 0 12.54 11.99"><defs><style>.cls-1{fill:#d22856;}</style></defs><path class="cls-1" d="M6.24,12a.73.73,0,0,1-.56-.25C1.89,7.42,1,6.44.83,6.17h0A3.85,3.85,0,0,1,0,3.8,3.82,3.82,0,0,1,6.28.9,3.85,3.85,0,0,1,8.75,0a3.8,3.8,0,0,1,3.79,3.8,3.48,3.48,0,0,1-.89,2.38L6.79,11.74a.73.73,0,0,1-.55.25ZM2,5.28c.21.26,2.47,2.84,4.24,4.86L10.56,5.2a2,2,0,0,0,.52-1.4A2.33,2.33,0,0,0,8.75,1.47a2.43,2.43,0,0,0-1.9.94.79.79,0,0,1-.59.28.71.71,0,0,1-.57-.3A2.36,2.36,0,0,0,3.8,1.47,2.34,2.34,0,0,0,2,5.27Z"/></svg>