<svg id="Layer_1" data-name="Layer 1" xmlns="http://www.w3.org/2000/svg" viewBox="0 0 154.38 195.33"><defs><style>.cls-1{stroke:#231f20;stroke-miterlimit:10;}</style></defs><path class="cls-1" d="M640.8,303l-.8-.08-76.69,8V451.49L640,497.12l76.69-45.63V310.92Zm65.86,142.82L640,485.45l-66.66-39.67V388.17l66.37,39.5.12,7.16-45.54-27.1-.07,6.95,45.72,27.48.11,7.35-45.7-27.19-.06,6.95L640,456.75l46.15-27.62v-7l-.06,0v-22.7l20.57-12.28Zm0-66.06-18.24,10.75-8.42,5L639.8,371.54l-.06,7,34.31,20.4-.3.18-.74.44-4.88,2.87L639.8,385.54l-.06,6.95,22.36,13.29-5.28,3.53-.13.08-16.89-9.95-.06,6.95,11.08,6.53-11.29,6.78-66-39.26,66.14-39.76h0Zm0-7-67-39.51h0l-66.28,39.47V320L640,313l66.66,7Z" transform="translate(-562.81 -302.38)"/></svg>