<svg id="Layer_1" data-name="Layer 1" xmlns="http://www.w3.org/2000/svg" viewBox="0 0 19.7 19.7"><defs><style>.cls-1{fill:#d22856;}</style></defs><path class="cls-1" d="M9.85,0c-3.51,0-7,.63-8.3,1.88A6.82,6.82,0,0,0,0,5.91a1.59,1.59,0,0,0,0,.17.82.82,0,0,0,.82.82L4,6.64l.08,0a.81.81,0,0,0,.8-.82V4.19a.9.9,0,0,1,.9-.91h8a.91.91,0,0,1,.91.91V5.8a.82.82,0,0,0,.8.82l.09,0,3.22.26a.82.82,0,0,0,.82-.82,1.59,1.59,0,0,0,0-.17,6.89,6.89,0,0,0-1.53-4C16.87.63,13.36,0,9.85,0Zm0,10.67a1.64,1.64,0,1,0,1.64,1.64A1.63,1.63,0,0,0,9.85,10.67ZM8.62,7V6a1,1,0,1,0-2,0V7L1,12.89a2,2,0,0,0-.62,1.47V16a1.65,1.65,0,0,0,1.64,1.65h.41v1a1,1,0,1,0,2.05,0v-1H15.18v1a1,1,0,1,0,2.05,0v-1h.41A1.64,1.64,0,0,0,19.28,16V14.36a2,2,0,0,0-.61-1.47L13.13,7V6a1,1,0,1,0-2.05,0V7ZM9.85,9a3.28,3.28,0,1,1-3.28,3.28A3.28,3.28,0,0,1,9.85,9Z" transform="translate(0)"/></svg>