<svg id="Layer_1" data-name="Layer 1" xmlns="http://www.w3.org/2000/svg" viewBox="0 0 17.5 14.66"><g id="W6EeEF"><path d="M11.28.15A3.31,3.31,0,0,1,15,1.3c.69-.22,1.37-.47,2.07-.69a2.27,2.27,0,0,1-.88,1.73,1.62,1.62,0,0,0,1.34-.48,2.89,2.89,0,0,1-1.61,2c-.24,6.59-3.27,11-10.38,10.82H5.05c-.42,0-4.29-.45-5-1.84a6.64,6.64,0,0,0,4.84-1.15c-1-.3-2.77-.47-3.07-2.88A2.13,2.13,0,0,0,3,8.9C1.76,8.07.38,7.37.46,5.22a2,2,0,0,0,1.38.46C1.12,5.44-.19,2.4.92.84,2.79,2.65,4.77,4.36,8.29,4.53,8.51,2.29,9.46.79,11.28.15Z" transform="translate(0 0)"/></g></svg>