<svg id="Layer_1" data-name="Layer 1" xmlns="http://www.w3.org/2000/svg" viewBox="0 0 17.99 13.97"><defs><style>.cls-1{fill:#d22856;}</style></defs><path class="cls-1" d="M14.91,1.81c1.2-1,.91-1.81-.65-1.81H3.73C2.17,0,1.88.82,3.07,1.81L6.82,4.93a3.53,3.53,0,0,0,4.35,0Z" transform="translate(0 0)"/><path class="cls-1" d="M11.91,7,9.7,8.88h0A1.09,1.09,0,0,1,9.44,9l-.1.05A1.28,1.28,0,0,1,9,9.14H9l-.33-.06L8.55,9a1.16,1.16,0,0,1-.24-.14h0L6.08,7,2.18,3.8C1,2.8,0,3.26,0,4.82v6.31A2.85,2.85,0,0,0,2.83,14H15.15A2.85,2.85,0,0,0,18,11.13V4.82c0-1.56-1-2-2.18-1Z" transform="translate(0 0)"/></svg>