<svg id="Layer_1" data-name="Layer 1" xmlns="http://www.w3.org/2000/svg" viewBox="0 0 46.21 56.75"><defs><style>.cls-1{fill:#fff;}</style></defs><path class="cls-1" d="M38.59,30.15a12.53,12.53,0,0,0,7.62,11.48,30.59,30.59,0,0,1-3.93,8.07c-2.36,3.46-4.82,6.91-8.68,7s-5-2.25-9.37-2.25-5.7,2.18-9.3,2.32S8.36,53,6,49.56c-4.87-7-8.6-19.91-3.6-28.59a13.91,13.91,0,0,1,11.75-7.11c3.66-.07,7.12,2.46,9.36,2.46s6.45-3.05,10.87-2.6a13.28,13.28,0,0,1,10.38,5.63c-.27.17-6.2,3.62-6.14,10.8M31.45,9.06A12.44,12.44,0,0,0,34.4,0,12.75,12.75,0,0,0,26,4.3c-1.83,2.12-3.44,5.52-3,8.78,3.19.25,6.44-1.62,8.42-4" transform="translate(0)"/></svg>