<svg id="Layer_1" data-name="Layer 1" xmlns="http://www.w3.org/2000/svg" viewBox="0 0 74.43 22.86"><defs><style>.cls-1{fill:#fff;}</style></defs><path class="cls-1" d="M0,1.45A1.29,1.29,0,0,1,1.26.16H8.44c5.08,0,8.43,2.71,8.43,7.15v.06c0,4.86-4.05,7.38-8.85,7.38H2.54v6.82a1.29,1.29,0,0,1-1.28,1.29A1.29,1.29,0,0,1,0,21.57Zm8.11,11c3.74,0,6.19-2,6.19-5V7.41c0-3.22-2.42-4.9-6.06-4.9H2.54v9.92Z"/><path class="cls-1" d="M21.73,1.29a1.27,1.27,0,1,1,2.54,0V21.57a1.27,1.27,0,1,1-2.54,0V1.29Z"/><path class="cls-1" d="M30.87,1.32A1.28,1.28,0,0,1,32.13.06h.35A1.57,1.57,0,0,1,33.77.8L47.45,18.25v-17a1.24,1.24,0,1,1,2.48,0V21.6a1.14,1.14,0,0,1-1.16,1.19h-.13A1.76,1.76,0,0,1,47.32,22l-14-17.87V21.6a1.24,1.24,0,1,1-2.48,0Z"/><path class="cls-1" d="M56.3,1.29a1.27,1.27,0,1,1,2.54,0V13.62L71.69.45a1.43,1.43,0,0,1,1-.45,1.27,1.27,0,0,1,1.22,1.26,1.25,1.25,0,0,1-.42.9l-8,7.92,8.56,10.56a1.39,1.39,0,0,1,.36.93,1.31,1.31,0,0,1-1.29,1.29,1.22,1.22,0,0,1-1-.58l-8.4-10.46-4.86,4.86v4.89a1.28,1.28,0,1,1-2.55,0V1.29Z"/></svg>