<svg id="Layer_1" data-name="Layer 1" xmlns="http://www.w3.org/2000/svg" viewBox="0 0 298 345.1"><defs><style>.cls-1{fill:#dedede;}.cls-2{fill:#d22856;}</style></defs><path class="cls-1" d="M264.57,102.06l5.35-5.36c7.72-7.72,9.13-18.94,3.13-24.93s-17.22-4.6-24.93,3.12l-5.39,5.39A148.19,148.19,0,0,0,168,48.3V38.71h7.66c10.91,0,19.84-8.71,19.84-19.35S186.57,0,175.66,0H122.34C111.43,0,102.5,8.71,102.5,19.36s8.93,19.35,19.84,19.35H130V48.3a149,149,0,1,0,134.57,53.76ZM149,306.26A110.17,110.17,0,1,1,259.17,196.1,110.17,110.17,0,0,1,149,306.26Z"/><path class="cls-2" d="M149,69.6A126.5,126.5,0,1,0,275.5,196.1,126.5,126.5,0,0,0,149,69.6Zm0,237.21A110.17,110.17,0,1,1,259.17,196.65,110.17,110.17,0,0,1,149,306.81Z"/></svg>