<?xml version="1.0" encoding="utf-8"?><svg viewBox="0 0 154.38 195.33" xmlns="http://www.w3.org/2000/svg" xmlns:xlink="http://www.w3.org/1999/xlink"><style>:root>svg{display:none}:root>svg:target{display:block}</style><svg data-name="Layer 1" viewBox="0 0 30.37 21.69" id="svg--ico-checkbox" xmlns="http://www.w3.org/2000/svg"><path d="M29.94.44a1.5 1.5 0 00-2.13 0L10.19 18.07l-7.63-7.63a1.5 1.5 0 00-2.12 2.12l8.69 8.69a1.5 1.5 0 002.12 0L29.94 2.56a1.51 1.51 0 000-2.12z"/></svg><svg data-name="Layer 1" viewBox="0 0 23.87 23.87" id="svg--ico-close" xmlns="http://www.w3.org/2000/svg"><path d="M15.09 11.93l8.56-8.56a.75.75 0 000-1.06L21.55.22a.75.75 0 00-1.06 0l-8.56 8.56L3.37.22a.77.77 0 00-1.06 0L.22 2.31a.75.75 0 000 1.06l8.56 8.56-8.56 8.56a.75.75 0 000 1.06l2.09 2.1a.75.75 0 001.06 0l8.56-8.56 8.56 8.56a.77.77 0 00.53.22.75.75 0 00.53-.22l2.1-2.1a.75.75 0 000-1.06z"/></svg><svg viewBox="0 0 31.92 31.92" id="svg--ico-contrast" xmlns="http://www.w3.org/2000/svg"><defs><style>.ccls-1{fill:#d22856}</style></defs><g id="cLayer_2" data-name="Layer 2"><g id="cLayer_1-2" data-name="Layer 1"><path class="ccls-1" d="M16 4A12 12 0 114 16 12 12 0 0116 4m0-4a16 16 0 1016 16A16 16 0 0016 0zM16 24.29a8.52 8.52 0 000-17"/></g></g></svg><svg data-name="Layer 1" viewBox="0 0 44 44" id="svg--ico-crop" xmlns="http://www.w3.org/2000/svg"><path d="M32 28h4V12a4 4 0 00-4-4H16v4h16zm-20 4V0H8v8H0v4h8v20a4 4 0 004 4h20v8h4v-8h8v-4z"/></svg><svg data-name="Layer 1" viewBox="0 0 26.75 26.75" id="svg--ico-cross" xmlns="http://www.w3.org/2000/svg"><path d="M15.5 13.38L26.31 2.56a1.49 1.49 0 000-2.12 1.51 1.51 0 00-2.12 0L13.38 11.25 2.56.44a1.49 1.49 0 00-2.12 0 1.51 1.51 0 000 2.12l10.81 10.82L.44 24.19a1.49 1.49 0 000 2.12 1.5 1.5 0 002.12 0L13.38 15.5l10.81 10.81a1.5 1.5 0 002.12 0 1.49 1.49 0 000-2.12z"/></svg><svg data-name="Layer 1" viewBox="0 0 8.67 18.94" id="svg--ico-facebook" xmlns="http://www.w3.org/2000/svg"><path d="M6.27 3.36h2.4V0H5.8C2.66.18 1.54 2.39 2 6.12H0v3.51h2v9.31h3.8V9.63h2.85V6.12H5.79c-.02-1.05-.04-2.41.48-2.76z"/></svg><svg data-name="Layer 1" viewBox="0 0 48 43" id="svg--ico-fill" xmlns="http://www.w3.org/2000/svg"><path d="M33.12 17.88L15.24 0l-2.83 2.83 4.76 4.76L6.88 17.88a3 3 0 000 4.24l11 11a3 3 0 004.24 0l11-11a3 3 0 000-4.24zM10.41 20L20 10.42 29.59 20zM38 23s-4 4.33-4 7a4 4 0 008 0c0-2.67-4-7-4-7zM0 40h48v3H0z"/></svg><svg id="svg--ico-heart" data-name="Layer 1" viewBox="0 0 12.54 11.99" xmlns="http://www.w3.org/2000/svg"><defs><style>.hcls-1{fill:#d22856}</style></defs><path class="hcls-1" d="M6.24 12a.73.73 0 01-.56-.25C1.89 7.42 1 6.44.83 6.17A3.85 3.85 0 010 3.8 3.82 3.82 0 016.28.9 3.85 3.85 0 018.75 0a3.8 3.8 0 013.79 3.8 3.48 3.48 0 01-.89 2.38l-4.86 5.56a.73.73 0 01-.55.25zM2 5.28c.21.26 2.47 2.84 4.24 4.86l4.32-4.94a2 2 0 00.52-1.4 2.33 2.33 0 00-2.33-2.33 2.43 2.43 0 00-1.9.94.79.79 0 01-.59.28.71.71 0 01-.57-.3 2.36 2.36 0 00-1.89-.92A2.34 2.34 0 002 5.27z"/></svg><svg id="svg--ico-html-logo" data-name="Layer 1" viewBox="0 0 154.38 195.33" xmlns="http://www.w3.org/2000/svg"><defs><style>.icls-1{stroke:#231f20;stroke-miterlimit:10}</style></defs><path class="icls-1" d="M640.8 303l-.8-.08-76.69 8v140.57L640 497.12l76.69-45.63V310.92zm65.86 142.82L640 485.45l-66.66-39.67v-57.61l66.37 39.5.12 7.16-45.54-27.1-.07 6.95 45.72 27.48.11 7.35-45.7-27.19-.06 6.95L640 456.75l46.15-27.62v-7h-.06v-22.7l20.57-12.28zm0-66.06l-18.24 10.75-8.42 5-40.2-23.97-.06 7 34.31 20.4-.3.18-.74.44-4.88 2.87-28.33-16.89-.06 6.95 22.36 13.29-5.28 3.53-.13.08-16.89-9.95-.06 6.95 11.08 6.53-11.29 6.78-66-39.26 66.14-39.76zm0-7l-67-39.51-66.28 39.47V320l66.62-7 66.66 7z" transform="translate(-562.81 -302.38)"/></svg><svg version="1.1" id="svg--ico-left-arrow" x="0" y="0" viewBox="0 0 21.5 41.4" xml:space="preserve" xmlns="http://www.w3.org/2000/svg"><style>.jst0{fill:#bec2c7}</style><path class="jst0" d="M2 20.7L21.3 1.4c.3-.3.3-.9 0-1.2-.3-.3-.9-.3-1.2 0L.2 20.1c-.3.3-.3.9 0 1.2L20 41.1c.2.2.4.2.6.2.2 0 .4-.1.6-.2.3-.3.3-.9 0-1.2L2 20.7z"/></svg><svg id="svg--ico-mail" data-name="Layer 1" viewBox="0 0 17.99 13.97" xmlns="http://www.w3.org/2000/svg"><defs><style>.kcls-1{fill:#d22856}</style></defs><path class="kcls-1" d="M14.91 1.81c1.2-1 .91-1.81-.65-1.81H3.73c-1.56 0-1.85.82-.66 1.81l3.75 3.12a3.53 3.53 0 004.35 0z"/><path class="kcls-1" d="M11.91 7L9.7 8.88a1.09 1.09 0 01-.26.12l-.1.05a1.28 1.28 0 01-.34.09l-.33-.06L8.55 9a1.16 1.16 0 01-.24-.14L6.08 7l-3.9-3.2C1 2.8 0 3.26 0 4.82v6.31A2.85 2.85 0 002.83 14h12.32A2.85 2.85 0 0018 11.13V4.82c0-1.56-1-2-2.18-1z"/></svg><svg id="svg--ico-phone" data-name="Layer 1" viewBox="0 0 19.7 19.7" xmlns="http://www.w3.org/2000/svg"><defs><style>.lcls-1{fill:#d22856}</style></defs><path class="lcls-1" d="M9.85 0c-3.51 0-7 .63-8.3 1.88A6.82 6.82 0 000 5.91a1.59 1.59 0 000 .17.82.82 0 00.82.82L4 6.64h.08a.81.81 0 00.8-.82V4.19a.9.9 0 01.9-.91h8a.91.91 0 01.91.91V5.8a.82.82 0 00.8.82h.09l3.22.26a.82.82 0 00.82-.82 1.59 1.59 0 000-.17 6.89 6.89 0 00-1.53-4C16.87.63 13.36 0 9.85 0zm0 10.67a1.64 1.64 0 101.64 1.64 1.63 1.63 0 00-1.64-1.64zM8.62 7V6a1 1 0 10-2 0v1L1 12.89a2 2 0 00-.62 1.47V16a1.65 1.65 0 001.64 1.65h.41v1a1 1 0 102.05 0v-1h10.7v1a1 1 0 102.05 0v-1h.41A1.64 1.64 0 0019.28 16v-1.64a2 2 0 00-.61-1.47L13.13 7V6a1 1 0 10-2.05 0v1zm1.23 2a3.28 3.28 0 11-3.28 3.28A3.28 3.28 0 019.85 9z"/></svg><svg id="svg--ico-right-arrow" data-name="Layer 1" viewBox="0 0 21.53 41.37" xmlns="http://www.w3.org/2000/svg"><defs><style>.mcls-1{fill:#bec2c7}</style></defs><path class="mcls-1" d="M19.5 20.69L.25 39.94a.84.84 0 000 1.19.83.83 0 001.18 0l19.85-19.85a.84.84 0 000-1.19L1.43.25A.79.79 0 00.84 0a.81.81 0 00-.59.25.83.83 0 000 1.18z"/></svg><svg data-name="Layer 1" viewBox="0 0 17.5 14.66" id="svg--ico-twitter" xmlns="http://www.w3.org/2000/svg"><path d="M11.28.15A3.31 3.31 0 0115 1.3c.69-.22 1.37-.47 2.07-.69a2.27 2.27 0 01-.88 1.73 1.62 1.62 0 001.34-.48 2.89 2.89 0 01-1.61 2c-.24 6.59-3.27 11-10.38 10.82h-.49c-.42 0-4.29-.45-5-1.84a6.64 6.64 0 004.84-1.15c-1-.3-2.77-.47-3.07-2.88A2.13 2.13 0 003 8.9C1.76 8.07.38 7.37.46 5.22a2 2 0 001.38.46C1.12 5.44-.19 2.4.92.84c1.87 1.81 3.85 3.52 7.37 3.69C8.51 2.29 9.46.79 11.28.15z"/></svg><svg data-name="Layer 1" viewBox="0 0 14.64 13.96" id="svg--ico-youtube" xmlns="http://www.w3.org/2000/svg"><path d="M1.78 13.78A1.14 1.14 0 010 12.67V1.29A1.14 1.14 0 011.78.18l12.13 5.93c1 .48 1 1.26 0 1.74z"/></svg></svg>